<?xml version="1.0" encoding="utf-8"?>
<!-- Generator: Adobe Illustrator 21.0.0, SVG Export Plug-In . SVG Version: 6.00 Build 0)  -->
<svg version="1.1" id="Layer_1" xmlns="http://www.w3.org/2000/svg" xmlns:xlink="http://www.w3.org/1999/xlink" x="0px" y="0px"
	 width="1400px" height="980px" viewBox="0 0 1400 980" enable-background="new 0 0 1400 980" xml:space="preserve">
<g>
	<g>
		<g>
			<linearGradient id="XMLID_11_" gradientUnits="userSpaceOnUse" x1="696.1412" y1="-17.4264" x2="702.1418" y2="771.6525">
				<stop  offset="0" style="stop-color:#0A3542"/>
				<stop  offset="0.1163" style="stop-color:#183945"/>
				<stop  offset="0.3038" style="stop-color:#32444A"/>
				<stop  offset="0.5391" style="stop-color:#564E4C"/>
				<stop  offset="0.8103" style="stop-color:#875645"/>
				<stop  offset="1" style="stop-color:#B25538"/>
			</linearGradient>
			<rect id="XMLID_9_" fill="url(#XMLID_11_)" width="1400" height="980"/>
		</g>
	</g>
	<polygon fill="#752104" points="497,739 553,603 585,579 613,528.1 635,528.1 635,767.6 891,767.6 1015,709 1087,528.1 1121,490 
		1143,421 1175,451.9 1175,693 1237,745 1049,819.5 669,889 	"/>
	<path fill="#872C12" d="M87,759l16-129.4c0,0,32-32.4,42-133.5l46-75.1c0,0,34,170,78,190s94,18.6,94,18.6l34,63.4l194,22l60-76
		l92-34l28-30.5h36L875,693L341,859L87,759z"/>
	<path fill="#9C3B1D" d="M1400,723.2C820.5,582.6,162.1,711.3,0,747.3V980h1400V723.2z"/>
	<g>
		<polygon fill="#872C12" points="0,962.3 189.5,874.5 0,924.3 		"/>
		<path fill="#872C12" d="M66.9,733.3l116.2-12l-10.5,20.2l27,10.5l252-25.5l16.5-25.5l94.5-7.5l72.5,29.2l-110,29.2l-12,27
			l-202.3,68.1l50.8,26.4l231-30l27,15.5l189-51.5L783,791.1l-73.5-7.5l16.5-25.5l90-28.5l-21-21l216,48l35.8,223.4H1400V723.2
			C881.4,597.3,299.6,687.2,66.9,733.3z"/>
	</g>
	<g>
		<ellipse fill="#FEC77C" cx="329.4" cy="150.9" rx="3.5" ry="2.2"/>
		<ellipse fill="#FEC77C" cx="300.5" cy="179.2" rx="3.5" ry="2.2"/>
		<ellipse fill="#FEC77C" cx="255.7" cy="163.9" rx="3.5" ry="2.2"/>
		<ellipse fill="#FEC77C" cx="356.4" cy="166.1" rx="3.5" ry="2.2"/>
		<ellipse fill="#FEC77C" cx="276.6" cy="142.5" rx="3.5" ry="2.2"/>
		<ellipse fill="#FEC77C" cx="351" cy="120.4" rx="3.5" ry="2.2"/>
		<ellipse fill="#FEC77C" cx="243.9" cy="114.4" rx="3.5" ry="2.2"/>
		<ellipse fill="#FEC77C" cx="189.6" cy="155.3" rx="3.5" ry="2.2"/>
		<ellipse fill="#FEC77C" cx="351" cy="211.2" rx="3.5" ry="2.2"/>
		<ellipse fill="#FEC77C" cx="702.1" cy="79.4" rx="3.5" ry="2.2"/>
		<ellipse fill="#FEC77C" cx="595" cy="73.4" rx="3.5" ry="2.2"/>
		<ellipse fill="#FEC77C" cx="403.9" cy="135.7" rx="3.5" ry="2.2"/>
		<ellipse fill="#FEC77C" cx="630.7" cy="247.9" rx="3.5" ry="2.2"/>
		<ellipse fill="#FEC77C" cx="601.8" cy="276.2" rx="3.5" ry="2.2"/>
		<ellipse fill="#FEC77C" cx="557" cy="260.9" rx="3.5" ry="2.2"/>
		<ellipse fill="#FEC77C" cx="657.7" cy="263.1" rx="3.5" ry="2.2"/>
		<ellipse fill="#FEC77C" cx="577.9" cy="239.5" rx="3.5" ry="2.2"/>
		<ellipse fill="#FEC77C" cx="490.9" cy="252.2" rx="3.5" ry="2.2"/>
		<ellipse fill="#FEC77C" cx="843.9" cy="385" rx="4.8" ry="2.9"/>
		<ellipse fill="#FEC77C" cx="706.6" cy="267.4" rx="3.5" ry="2.2"/>
		<ellipse fill="#FEC77C" cx="981.8" cy="206.9" rx="3.5" ry="2.2"/>
		<ellipse fill="#FEC77C" cx="952.9" cy="235.2" rx="3.5" ry="2.2"/>
		<ellipse fill="#FEC77C" cx="908" cy="219.9" rx="3.5" ry="2.2"/>
		<ellipse fill="#FEC77C" cx="1008.8" cy="222" rx="3.5" ry="2.2"/>
		<ellipse fill="#FEC77C" cx="929" cy="198.5" rx="3.5" ry="2.2"/>
		<ellipse fill="#FEC77C" cx="1003.4" cy="176.4" rx="3.5" ry="2.2"/>
		<ellipse fill="#FEC77C" cx="896.3" cy="170.4" rx="3.5" ry="2.2"/>
		<ellipse fill="#FEC77C" cx="771.3" cy="241.3" rx="3.5" ry="2.2"/>
		<ellipse fill="#FEC77C" cx="872" cy="243.4" rx="3.5" ry="2.2"/>
		<ellipse fill="#FEC77C" cx="866.6" cy="197.8" rx="3.5" ry="2.2"/>
		<ellipse fill="#FEC77C" cx="759.5" cy="191.8" rx="3.5" ry="2.2"/>
		<ellipse fill="#FEC77C" cx="210.3" cy="237.9" rx="3.5" ry="2.2"/>
		<ellipse fill="#FEC77C" cx="181.4" cy="266.2" rx="3.5" ry="2.2"/>
		<ellipse fill="#FEC77C" cx="136.5" cy="250.9" rx="3.5" ry="2.2"/>
		<ellipse fill="#FEC77C" cx="237.3" cy="253.1" rx="3.5" ry="2.2"/>
		<ellipse fill="#FEC77C" cx="157.5" cy="229.5" rx="3.5" ry="2.2"/>
		<ellipse fill="#FEC77C" cx="231.9" cy="207.4" rx="3.5" ry="2.2"/>
		<ellipse fill="#FEC77C" cx="124.8" cy="201.4" rx="3.5" ry="2.2"/>
		<ellipse fill="#FEC77C" cx="70.4" cy="242.3" rx="3.5" ry="2.2"/>
		<ellipse fill="#FEC77C" cx="393.3" cy="263.4" rx="3.5" ry="2.2"/>
		<ellipse fill="#FEC77C" cx="286.2" cy="257.4" rx="3.5" ry="2.2"/>
		<ellipse fill="#FEC77C" cx="231.9" cy="298.2" rx="3.5" ry="2.2"/>
		<ellipse fill="#FEC77C" cx="395.7" cy="246.6" rx="3.5" ry="2.2"/>
		<ellipse fill="#FEC77C" cx="350.9" cy="231.3" rx="3.5" ry="2.2"/>
		<ellipse fill="#FEC77C" cx="339.1" cy="181.8" rx="3.5" ry="2.2"/>
		<ellipse fill="#FEC77C" cx="284.7" cy="222.6" rx="3.5" ry="2.2"/>
	</g>
	<g>
		<ellipse fill="#FEC77C" cx="505.7" cy="197.6" rx="3.5" ry="2.2"/>
		<ellipse fill="#FEC77C" cx="476.8" cy="225.8" rx="3.5" ry="2.2"/>
		<ellipse fill="#FEC77C" cx="431.9" cy="210.5" rx="3.5" ry="2.2"/>
		<ellipse fill="#FEC77C" cx="532.7" cy="212.7" rx="3.5" ry="2.2"/>
		<ellipse fill="#FEC77C" cx="452.9" cy="189.1" rx="3.5" ry="2.2"/>
		<ellipse fill="#FEC77C" cx="527.3" cy="167.1" rx="3.5" ry="2.2"/>
		<ellipse fill="#FEC77C" cx="420.2" cy="161" rx="3.5" ry="2.2"/>
		<ellipse fill="#FEC77C" cx="365.8" cy="201.9" rx="3.5" ry="2.2"/>
		<ellipse fill="#FEC77C" cx="527.3" cy="257.8" rx="3.5" ry="2.2"/>
		<ellipse fill="#FEC77C" cx="878.4" cy="126" rx="3.5" ry="2.2"/>
		<ellipse fill="#FEC77C" cx="771.3" cy="120" rx="3.5" ry="2.2"/>
		<ellipse fill="#FEC77C" cx="580.1" cy="182.3" rx="3.5" ry="2.2"/>
		<ellipse fill="#FEC77C" cx="807" cy="294.5" rx="3.5" ry="2.2"/>
		<ellipse fill="#FEC77C" cx="778" cy="322.8" rx="3.5" ry="2.2"/>
		<ellipse fill="#FEC77C" cx="733.2" cy="307.5" rx="3.5" ry="2.2"/>
		<ellipse fill="#FEC77C" cx="834" cy="309.7" rx="3.5" ry="2.2"/>
		<ellipse fill="#FEC77C" cx="754.2" cy="286.1" rx="3.5" ry="2.2"/>
		<ellipse fill="#FEC77C" cx="667.1" cy="298.9" rx="3.5" ry="2.2"/>
		<ellipse fill="#FEC77C" cx="1020.2" cy="431.6" rx="4.8" ry="2.9"/>
		<ellipse fill="#FEC77C" cx="882.9" cy="314" rx="3.5" ry="2.2"/>
		<ellipse fill="#FEC77C" cx="1158.1" cy="253.5" rx="3.5" ry="2.2"/>
		<ellipse fill="#FEC77C" cx="1129.1" cy="281.8" rx="3.5" ry="2.2"/>
		<ellipse fill="#FEC77C" cx="1084.3" cy="266.5" rx="3.5" ry="2.2"/>
		<ellipse fill="#FEC77C" cx="1185.1" cy="268.6" rx="3.5" ry="2.2"/>
		<ellipse fill="#FEC77C" cx="1105.3" cy="245.1" rx="3.5" ry="2.2"/>
		<ellipse fill="#FEC77C" cx="1179.7" cy="223" rx="3.5" ry="2.2"/>
		<ellipse fill="#FEC77C" cx="1072.6" cy="217" rx="3.5" ry="2.2"/>
		<ellipse fill="#FEC77C" cx="947.6" cy="287.9" rx="3.5" ry="2.2"/>
		<ellipse fill="#FEC77C" cx="1048.3" cy="290.1" rx="3.5" ry="2.2"/>
		<ellipse fill="#FEC77C" cx="1042.9" cy="244.4" rx="3.5" ry="2.2"/>
		<ellipse fill="#FEC77C" cx="935.8" cy="238.4" rx="3.5" ry="2.2"/>
		<ellipse fill="#FEC77C" cx="386.5" cy="284.5" rx="3.5" ry="2.2"/>
		<ellipse fill="#FEC77C" cx="357.6" cy="312.8" rx="3.5" ry="2.2"/>
		<ellipse fill="#FEC77C" cx="312.8" cy="297.5" rx="3.5" ry="2.2"/>
		<ellipse fill="#FEC77C" cx="413.6" cy="299.7" rx="3.5" ry="2.2"/>
		<ellipse fill="#FEC77C" cx="333.8" cy="276.1" rx="3.5" ry="2.2"/>
		<ellipse fill="#FEC77C" cx="408.2" cy="254" rx="3.5" ry="2.2"/>
		<ellipse fill="#FEC77C" cx="301" cy="248" rx="3.5" ry="2.2"/>
		<ellipse fill="#FEC77C" cx="246.7" cy="288.9" rx="3.5" ry="2.2"/>
		<ellipse fill="#FEC77C" cx="569.6" cy="310" rx="3.5" ry="2.2"/>
		<ellipse fill="#FEC77C" cx="462.5" cy="304" rx="3.5" ry="2.2"/>
		<ellipse fill="#FEC77C" cx="408.2" cy="344.8" rx="3.5" ry="2.2"/>
		<ellipse fill="#FEC77C" cx="571.9" cy="293.2" rx="3.5" ry="2.2"/>
		<ellipse fill="#FEC77C" cx="527.1" cy="277.9" rx="3.5" ry="2.2"/>
		<ellipse fill="#FEC77C" cx="515.4" cy="228.4" rx="3.5" ry="2.2"/>
		<ellipse fill="#FEC77C" cx="461" cy="269.3" rx="3.5" ry="2.2"/>
	</g>
	<circle fill="#C2957F" cx="457.7" cy="358" r="145.8"/>
	<circle fill="#7E6B71" cx="1125.6" cy="112.3" r="54.9"/>
	<g>
		<path fill="#F9F1D7" d="M444.2,651.5l-48.4-195.2c-0.6-2.6-3.2-4.1-5.8-3.5l-2.1,0.5c-2.4,0.6-4.9-0.7-5.7-3.1
			c-0.9-2.7,0.6-5.6,3.4-6.2l2.1-0.5c2.6-0.6,4.1-3.2,3.5-5.8l-26.4-106.5c-0.6-2.6-3.2-4.1-5.8-3.5l-59.3,14.7l0,0l-16.6,4.1
			c-2.6,0.6-4.1,3.2-3.5,5.8l5,20l0,0l12.2,49c-10.1-15.7-27.7-26.1-47.8-26.1c-1.1,0-2.2,0-3.3,0.1c-0.3,0-0.7,0.1-1,0.1
			c-0.8,0.1-1.5,0.1-2.3,0.2c-0.4,0-0.7,0.1-1,0.1c-0.8,0.1-1.5,0.2-2.3,0.4c-0.3,0.1-0.6,0.1-0.9,0.2c-1,0.2-2,0.4-2.9,0.6
			c0,0-0.1,0-0.1,0c-2.2,0.5-4.3,1.2-6.3,2c-0.1,0.1-0.3,0.1-0.4,0.2c-0.9,0.4-1.8,0.7-2.7,1.1c-0.1,0.1-0.2,0.1-0.4,0.2
			c-19.5,9-33.1,28.7-33.1,51.6c0,3.3,0.3,6.6,0.8,9.7l0,0c0,0,0,0,0,0c0.3,2,0.8,4,1.3,5.9c0,0,0,0,0,0c0.7,2.6,1.7,5.1,2.7,7.5
			c0,0,0,0,0,0c0.8,1.8,1.7,3.6,2.7,5.3c0,0,0,0,0,0c1.3,2.3,2.8,4.4,4.4,6.5c0,0,0,0,0,0.1c1.2,1.5,2.5,3,3.8,4.4c0,0,0,0,0,0
			c1.8,1.9,3.7,3.6,5.8,5.2c0,0,0,0,0.1,0c3.6,2.8,7.5,5.2,11.7,7.1c0,0,0,0,0,0c2.4,1.1,4.9,2,7.5,2.7c0,0,0,0,0,0l0,0
			c5,1.5,10.3,2.3,15.8,2.3c1.5,0,2.9-0.1,4.4-0.2l0,0l-23,6.2l11,37.1c-12.2,3.9-28,3.6-48.8-4.7l-3.6,7.1c0,0-8.8-13.9-22.9-12.3
			s-23.4,23.4-23.4,23.4l39.1,10.9v10.6c-4.7,8.4-6.2,18.6-6.2,18.6l40.6,0.3l3,11c0,0,19.1,1.7,40.8-2.1l11,37.2
			c0,0-62.9,50.4-9.9,161.1c0,0-32.1,15.6-30.8,39l19.1-5.3l0,0l74.1-20.4c0,0-42.1-92-22.6-114.6c3-3.5,6.9-6.9,11.4-10.3
			c1.9,14.2,6,30.5,15.1,41.6c19.5,23.7,52,46.6,52,46.6s-20,19.3-12.2,41.3l59.2-49.2c0,0-62.1-64.6-68.8-110.3
			c0.3-0.3,0.7-0.5,1-0.8l0.5,2c0.6,2.6,3.2,4.1,5.8,3.5l75.8-18.8C443.3,656.7,444.9,654.1,444.2,651.5z"/>
		<path fill="#FEC77C" d="M452.2,651.5l-48.4-195.2c-0.6-2.6-3.2-4.1-5.8-3.5l-2.1,0.5c-2.4,0.6-4.9-0.7-5.7-3.1
			c-0.9-2.7,0.6-5.6,3.4-6.2l2.1-0.5c2.6-0.6,4.1-3.2,3.5-5.8l-26.4-106.5c-0.6-2.6-3.2-4.1-5.8-3.5l-59.3,14.7l0,0l-16.6,4.1
			c-2.6,0.6-4.1,3.2-3.5,5.8l5,20l0,0l12.2,49c-10.1-15.7-27.7-26.1-47.8-26.1c-1.1,0-2.2,0-3.3,0.1c-0.3,0-0.7,0.1-1,0.1
			c-0.8,0.1-1.5,0.1-2.3,0.2c-0.4,0-0.7,0.1-1,0.1c-0.8,0.1-1.5,0.2-2.3,0.4c-0.3,0.1-0.6,0.1-0.9,0.2c-1,0.2-2,0.4-2.9,0.6
			c0,0-0.1,0-0.1,0c-2.2,0.5-4.3,1.2-6.3,2c-0.1,0.1-0.3,0.1-0.4,0.2c-0.9,0.4-1.8,0.7-2.7,1.1c-0.1,0.1-0.2,0.1-0.4,0.2
			c-19.5,9-33.1,28.7-33.1,51.6c0,3.3,0.3,6.6,0.8,9.7l0,0c0,0,0,0,0,0c0.3,2,0.8,4,1.3,5.9c0,0,0,0,0,0c0.7,2.6,1.7,5.1,2.7,7.5
			c0,0,0,0,0,0c0.8,1.8,1.7,3.6,2.7,5.3c0,0,0,0,0,0c1.3,2.3,2.8,4.4,4.4,6.5c0,0,0,0,0,0.1c1.2,1.5,2.5,3,3.8,4.4c0,0,0,0,0,0
			c1.8,1.9,3.7,3.6,5.8,5.2c0,0,0,0,0.1,0c3.6,2.8,7.5,5.2,11.7,7.1c0,0,0,0,0,0c2.4,1.1,4.9,2,7.5,2.7c0,0,0,0,0,0l0,0
			c5,1.5,10.3,2.3,15.8,2.3c1.5,0,2.9-0.1,4.4-0.2l0,0l-23,6.2l11,37.1c-12.2,3.9-28,3.6-48.8-4.7l-3.6,7.1c0,0-8.8-13.9-22.9-12.3
			s-23.4,23.4-23.4,23.4l39.1,10.9v10.6c-4.7,8.4-6.2,18.6-6.2,18.6l40.6,0.3l3,11c0,0,19.1,1.7,40.8-2.1l11,37.2
			c0,0-62.9,50.4-9.9,161.1c0,0-32.1,15.6-30.8,39l19.1-5.3l0,0l74.1-20.4c0,0-42.1-92-22.6-114.6c3-3.5,6.9-6.9,11.4-10.3
			c1.9,14.2,6,30.5,15.1,41.6c19.5,23.7,52,46.6,52,46.6s-20,19.3-12.2,41.3l59.2-49.2c0,0-62.1-64.6-68.8-110.3
			c0.3-0.3,0.7-0.5,1-0.8l0.5,2c0.6,2.6,3.2,4.1,5.8,3.5l75.8-18.8C451.3,656.7,452.9,654.1,452.2,651.5z"/>
		<g>
			<linearGradient id="SVGID_1_" gradientUnits="userSpaceOnUse" x1="314.0659" y1="739.9747" x2="429.6208" y2="739.9747">
				<stop  offset="0.5135" style="stop-color:#000000"/>
				<stop  offset="1" style="stop-color:#000000"/>
			</linearGradient>
			<path fill="url(#SVGID_1_)" d="M314.2,673.6c0,0-3.1,47.5,16.4,71.2s52,46.6,52,46.6s-20,19.3-12.2,41.3l59.2-49.2
				c0,0-69.4-72.1-69.4-117.8C360.2,619.9,314.2,673.6,314.2,673.6z"/>
			<linearGradient id="SVGID_2_" gradientUnits="userSpaceOnUse" x1="145.8683" y1="551.3066" x2="302.4618" y2="551.3066">
				<stop  offset="0.5135" style="stop-color:#000000"/>
				<stop  offset="1" style="stop-color:#000000"/>
			</linearGradient>
			<path fill="url(#SVGID_2_)" d="M282.7,503.9c0,0-11.6,75.1-86.9,45l-3.6,7.1c0,0-8.8-13.9-22.9-12.3s-23.4,23.4-23.4,23.4
				l39.1,10.9v11.4c0,0,74.2,27.5,105.4-12.5S282.7,503.9,282.7,503.9z"/>
			<path fill="#E3856E" d="M447.5,653.3L399,458.1c-0.6-2.6-3.2-4.1-5.8-3.5l-2.1,0.5c-2.4,0.6-4.9-0.7-5.7-3.1
				c-0.9-2.7,0.6-5.6,3.4-6.2l2.1-0.5c2.6-0.6,4.1-3.2,3.5-5.8L368,333c-0.6-2.6-3.2-4.1-5.8-3.5l-75.8,18.8
				c-2.6,0.6-4.1,3.2-3.5,5.8l17.1,69c-10.1-15.7-27.7-26.1-47.8-26.1c-31.3,0-56.8,25.4-56.8,56.8c0,31.3,25.4,56.8,56.8,56.8
				c1.5,0,2.9-0.1,4.4-0.2l0,0l-23,6.2l17.6,59.4c-8.1,1.6-17.7,1.9-29,0.6l-1.6,7.8c0,0-12.2-11.1-25.3-5.9
				c-13.1,5.2-16.5,28.7-16.5,28.7l40.6,0.3l3,11c0,0,19.1,1.7,40.8-2.1l11,37.2c0,0-62.9,50.4-9.9,161.1c0,0-32.1,15.6-30.8,39
				l93.2-25.7c0,0-42.1-92-22.6-114.6c12.3-14.3,38.9-26.7,57.7-41l0.5,2c0.6,2.6,3.2,4.1,5.8,3.5l75.8-18.8
				C446.5,658.5,448.1,655.9,447.5,653.3z"/>
			<g>
				<path fill="#0A3542" d="M222.3,618.6c0,0,19.1,1.7,40.8-2.1c0,0,44.8-6.5,53.1-24.9V619l112.7-40l-30-120.8
					c-0.6-2.6-3.2-4.1-5.8-3.5l-2.1,0.5c-2.4,0.6-4.9-0.7-5.7-3.1c-0.9-2.7,0.6-5.6,3.4-6.2l2.1-0.5c2.6-0.6,4.1-3.2,3.5-5.8
					L368,333c-0.6-2.6-3.2-4.1-5.8-3.5l-59.3,14.7l52.3,55.9l-67.4-26.1l12.2,49c-10.1-15.7-27.7-26.1-47.8-26.1
					c-9.6,0-18.6,2.4-26.5,6.6c-8.5,13.9-13.8,31.8-8.5,53.4c14,56.6,53,47,53,47l-23,16.2l9.4,19.5l24.2-9l-18.6,15.6l5.4,24.9
					c0,0,31.2-22.2,32-40.1c0.8-17.9,23.8-19.9,23.8-19.9s-11.3,8.6-14.8,21.4c-3.5,12.9-23,36.2-23,36.2l17.1,22.7l-20.6-18.8
					l10.9,25.9l-10.5,5.6l-8.2-26.9l-1.6,25.7l-48.4,1.2c0,0-23.4-20.3-45.4,2.9l40.6,0.3L222.3,618.6z M314.1,489.3v-35.5
					l43.1,27.3v17.1l-28.1-14.8l81.1,63.9l-55.3-7.8L314.1,489.3z"/>
				<linearGradient id="SVGID_3_" gradientUnits="userSpaceOnUse" x1="260.5284" y1="662.1049" x2="447.597" y2="662.1049">
					<stop  offset="0.5135" style="stop-color:#000000"/>
					<stop  offset="1" style="stop-color:#000000"/>
				</linearGradient>
				<path fill="url(#SVGID_3_)" d="M430.9,586.4l-150.8,51.5l40.4-10.7l14,11.4l-44.2,6.2l6.2,7.3c0,0-38,19.4-36,79.7l38.6,5.9
					c-0.7-10.4,0.5-19.2,4.9-24.4c12.3-14.3,38.9-26.7,57.7-41l0.5,2c0.6,2.6,3.2,4.1,5.8,3.5l75.8-18.8c2.6-0.6,4.1-3.2,3.5-5.8
					L430.9,586.4z"/>
				<linearGradient id="SVGID_4_" gradientUnits="userSpaceOnUse" x1="260.9107" y1="742.2601" x2="300.2139" y2="742.2601">
					<stop  offset="0.5135" style="stop-color:#000000"/>
					<stop  offset="1" style="stop-color:#000000"/>
				</linearGradient>
				<path fill="url(#SVGID_4_)" d="M261.9,746.9h38.3c-0.4-2.6-0.7-5.2-0.9-7.6l-38.4-1.8C261.1,740.6,261.5,743.7,261.9,746.9z"/>
				<linearGradient id="SVGID_5_" gradientUnits="userSpaceOnUse" x1="252.6344" y1="802.0048" x2="326.7217" y2="802.0048">
					<stop  offset="0.5135" style="stop-color:#000000"/>
					<stop  offset="1" style="stop-color:#000000"/>
				</linearGradient>
				<path fill="url(#SVGID_5_)" d="M264.2,760.7c3,14.1,7.8,29.8,15.2,47.4c0,0-26.3,20.6-26.8,40.5l74.1-20.4
					c0,0-17.9-39.1-24.9-72.5L264.2,760.7z"/>
				<linearGradient id="SVGID_6_" gradientUnits="userSpaceOnUse" x1="281.5244" y1="520.5644" x2="429.0034" y2="520.5644">
					<stop  offset="0.5135" style="stop-color:#000000"/>
					<stop  offset="1" style="stop-color:#000000"/>
				</linearGradient>
				<path fill="url(#SVGID_6_)" d="M393.2,454.6l-2.1,0.5c-2.4,0.6-4.9-0.7-5.7-3.1c-0.9-2.7,0.6-5.6,3.4-6.2l2.1-0.5
					c2.6-0.6,4.1-3.2,3.5-5.8l-4.3-17.3l-33.5,58.7l0.5,0.3v17.1l-8-4.2l-2.1,3.6l63.1,49.7l-55.3-7.8l-18.6-23l-38.9,68.1l5.1,6.8
					l-5.9-5.4l-5.2,9.1l1.5,3.4l-4.9,2.6l-6.4,11.1c13.4-3.8,30.1-10.4,34.8-20.9V619l112.7-40l-30-120.8
					C398.4,455.5,395.8,454,393.2,454.6z"/>
			</g>
			<path fill="#A54122" d="M196.3,463.5c3.7,21.5,19.5,38.8,40.1,44.8c16.9-8.6,25.7-18.9,25.7-18.9l-22.7-45.1
				C224.1,455.6,208.3,461,196.3,463.5z"/>
			<path fill="#600B00" d="M216.2,457.3l13,27.8l-3.1-19.6l16.4,23.7l-5.1,2.7l9.2,10.1l0,0c3.8-2.5,6.9-5,9.3-7l-19-33.5l23.4,29.4
				c1.1-1.1,1.6-1.7,1.6-1.7l-22.7-45.1C231.6,450,223.7,454.3,216.2,457.3z"/>
			<g>
				<path fill="#A87A6B" d="M216.4,494.2l9-5c-7.6-10.1-12.3-21.5-15-29.6c-2.4,0.8-4.8,1.6-7,2.2
					C207.1,476.5,211.6,486.9,216.4,494.2z"/>
				<path fill="#A87A6B" d="M228.1,492.6l-9.1,5.2c1.4,1.7,2.7,3.2,4.1,4.5c4.1,2.5,8.6,4.5,13.3,5.8c2.2-1.1,4.2-2.2,6.1-3.4
					C236.9,501.6,232.2,497.4,228.1,492.6z"/>
			</g>
		</g>
	</g>
	<g>
		<path fill="#FEC77C" d="M1394.3,976.2V172.5l-7-18l-65.7,16.4L1250,450.6l-61.7,28.9l-51.8,211l-63.7,27.9l-45.4-41.8l-78,17.9
			c0,0-31.9,101.5-61.7,141.3c-29.9,39.8-101.5,39.8-101.5,39.8l-88.5,100.5H1394.3z"/>
		<linearGradient id="SVGID_7_" gradientUnits="userSpaceOnUse" x1="760.2605" y1="573.5654" x2="1394.3334" y2="573.5654">
			<stop  offset="0.5135" style="stop-color:#000000"/>
			<stop  offset="1" style="stop-color:#000000"/>
		</linearGradient>
		<path fill="url(#SVGID_7_)" d="M1394.3,976.2V172.5l-8.2-1.6h-58L1263,450.6l-56.2,28.9l-47.1,211l-58,27.9l-74.3-41.8l-38.1,17.9
			c0,0-29,101.5-56.2,141.3c-27.2,39.8-92.4,39.8-92.4,39.8l-80.5,100.5H1394.3z"/>
		<g>
			<path fill="#FEC77C" d="M1276.9,740.3c0,0-102.1-348.8-231.5-318.6c-129.4,30.2-149.8,196-207.3,217.6
				c-57.5,21.6,5.1-73.9-18.2-85.9c-13.3-6.8-32.4,22.2-39.4,53.8c-6.3,0.3-11.3,5.5-11.3,11.9c0,5.4,3.7,10,8.6,11.4
				c0,7.1,1,14,3,20.2c-1.9,2.1-3,4.9-3,7.9c0,6.6,5.3,11.9,11.9,11.9c1.5,0,2.9-0.3,4.2-0.8c4.6,3.6,9.4,6.9,14.3,9.9
				c-0.2,0.9-0.3,1.8-0.3,2.8c0,6.6,5.3,11.9,11.9,11.9c3.8,0,7.1-1.7,9.3-4.5c0.9,0.3,1.8,0.6,2.6,0.9c0,0.1,0,0.2,0,0.3
				c0,6.6,5.3,11.9,11.9,11.9c4.9,0,9.2-3,11-7.3c3.8,0.3,7.7,0.4,11.6,0.1c1.8,4.2,6,7.2,10.9,7.2c6.5,0,11.8-5.3,11.9-11.8
				c3.5-1.2,7-2.7,10.4-4.5c2.2,2.6,5.5,4.3,9.2,4.3c6.6,0,11.9-5.3,11.9-11.9c0-2-0.5-3.8-1.3-5.5c1.8-1.5,3.6-3.1,5.4-4.8
				c2.7-2.5,5.1-5,7.4-7.6c1.9,1.2,4.1,1.9,6.4,1.9c6.6,0,11.9-5.3,11.9-11.9c0-3.7-1.7-7-4.4-9.2c2.5-4.1,4.8-8.2,6.9-12.2
				c1.6,0.7,3.3,1.2,5.1,1.2c6.6,0,11.9-5.3,11.9-11.9c0-4.4-2.3-8.2-5.8-10.2c3.2-5.4,6.4-9.9,10.2-13.3
				c0.2,6.4,5.4,11.6,11.9,11.6c6.6,0,11.9-5.3,11.9-11.9c0-1.7-0.4-3.3-1-4.7c6.5,1.5,14.3,4.9,23.8,10.7
				c62.1,37.8,56.2,208.7,56.2,208.7L1276.9,740.3z"/>
			<linearGradient id="SVGID_8_" gradientUnits="userSpaceOnUse" x1="762.4387" y1="624.1613" x2="1280.7108" y2="624.1613">
				<stop  offset="5.405406e-03" style="stop-color:#8C553C"/>
				<stop  offset="7.775898e-02" style="stop-color:#624A3E"/>
				<stop  offset="0.1583" style="stop-color:#3B3D3C"/>
				<stop  offset="0.2378" style="stop-color:#182F35"/>
				<stop  offset="0.3145" style="stop-color:#00212C"/>
				<stop  offset="0.3876" style="stop-color:#00131B"/>
				<stop  offset="0.4556" style="stop-color:#000408"/>
				<stop  offset="0.5135" style="stop-color:#000000"/>
				<stop  offset="1" style="stop-color:#000000"/>
			</linearGradient>
			<path fill="url(#SVGID_8_)" d="M1280.7,750.8c0,0-112.7-359.3-242.1-329.1c-129.4,30.2-149.8,196-207.3,217.6
				c-57.5,21.6,5.1-73.9-18.2-85.9c-13.3-6.8-32.4,22.2-39.4,53.8c-6.3,0.3-11.3,5.5-11.3,11.9c0,5.4,3.7,10,8.6,11.4
				c0,7.1,1,14,3,20.2c-1.9,2.1-3,4.9-3,7.9c0,6.6,5.3,11.9,11.9,11.9c1.5,0,2.9-0.3,4.2-0.8c4.6,3.6,9.4,6.9,14.3,9.9
				c-0.2,0.9-0.3,1.8-0.3,2.8c0,6.6,5.3,11.9,11.9,11.9c3.8,0,7.1-1.7,9.3-4.5c0.9,0.3,1.8,0.6,2.6,0.9c0,0.1,0,0.2,0,0.3
				c0,6.6,5.3,11.9,11.9,11.9c4.9,0,9.2-3,11-7.3c3.8,0.3,7.7,0.4,11.6,0.1c1.8,4.2,6,7.2,10.9,7.2c6.5,0,11.8-5.3,11.9-11.8
				c3.5-1.2,7-2.7,10.4-4.5c2.2,2.6,5.5,4.3,9.2,4.3c6.6,0,11.9-5.3,11.9-11.9c0-2-0.5-3.8-1.3-5.5c1.8-1.5,3.6-3.1,5.4-4.8
				c2.7-2.5,5.1-5,7.4-7.6c1.9,1.2,4.1,1.9,6.4,1.9c6.6,0,11.9-5.3,11.9-11.9c0-3.7-1.7-7-4.4-9.2c2.5-4.1,4.8-8.2,6.9-12.2
				c1.6,0.7,3.3,1.2,5.1,1.2c6.6,0,11.9-5.3,11.9-11.9c0-4.4-2.3-8.2-5.8-10.2c3.2-5.4,6.4-9.9,10.2-13.3
				c0.2,6.4,5.4,11.6,11.9,11.6c6.6,0,11.9-5.3,11.9-11.9c0-1.7-0.4-3.3-1-4.7c6.5,1.5,14.3,4.9,23.8,10.7
				c62.1,37.8,53.5,227.1,53.5,227.1L1280.7,750.8z"/>
			<path fill="#FEC77C" d="M982.1,563.3c2.5,1,4.3,2.6,4.8,4.7c1.1,4.7-4.5,10.1-12.6,12c-8,1.9-15.5-0.4-16.6-5.1
				c-1.1-4.6,4.3-9.9,12.2-11.9c-0.1,0-0.3,0.1-0.4,0.1c-9.4,2.2-15.9,8.7-14.5,14.5s10.1,8.7,19.4,6.5c9.4-2.2,15.9-8.7,14.5-14.5
				C988.2,566.6,985.7,564.5,982.1,563.3z"/>
			<path fill="#FEC77C" d="M939.3,606.3c2.1-0.6,4-0.4,5.3,0.7c3,2.5,1.9,8.6-2.4,13.7c-4.3,5-10.1,7.1-13.1,4.6
				c-2.9-2.5-1.9-8.4,2.2-13.4c-0.1,0.1-0.1,0.2-0.2,0.2c-5,5.9-6,13.1-2.4,16.2c3.6,3.1,10.6,0.8,15.6-5.1c5-5.9,6-13.1,2.4-16.2
				C944.8,605.5,942.1,605.3,939.3,606.3z"/>
			<path fill="#FEC77C" d="M906.1,641.3c2.1-0.6,4-0.4,5.3,0.7c3,2.5,1.9,8.6-2.4,13.7c-4.3,5-10.1,7.1-13.1,4.6
				c-2.9-2.5-1.9-8.4,2.2-13.4c-0.1,0.1-0.1,0.2-0.2,0.2c-5,5.9-6,13.1-2.4,16.2c3.6,3.1,10.6,0.8,15.6-5.1c5-5.9,6-13.1,2.4-16.2
				C911.7,640.5,909,640.3,906.1,641.3z"/>
			<path fill="#FEC77C" d="M865.9,665c2.1,0.5,3.7,1.6,4.3,3.2c1.4,3.6-2.4,8.5-8.6,10.9s-12.3,1.5-13.7-2.1
				c-1.4-3.5,2.3-8.3,8.2-10.8c-0.1,0-0.2,0.1-0.3,0.1c-7.1,2.8-11.5,8.7-9.8,13.1c1.7,4.4,9,5.7,16.1,2.9
				c7.1-2.8,11.5-8.7,9.8-13.1C871.2,666.9,868.9,665.5,865.9,665z"/>
		</g>
		<g>
			<path fill="#FEC77C" d="M1052.9,885.6c0,0-257.8-268.8-471.1-132.9C398,869.8,328.5,971.2,261.7,941.4
				c-66.8-29.9-26.4-139.9-65.5-111.7c-39.1,28.1-6.8,134.7-6.8,134.7h253.7c0,0,4.8-4.3,13.2-10.9c3.7,3.8,8.2,6.1,13.3,3.9
				c5.9-2.5,7.3-10.5,6.9-18.9c5.4-3.8,11.4-7.7,17.7-11.7c4.8,11.9,13.2,21.8,27.1,12.7c14-9.2,15.9-23.3,14.4-34.7
				c11-4.7,22.3-8.7,33.7-11.4c7.6,20.6,25.2,45.8,61,1.6c0.6,0.2,1.3,0.5,1.9,0.7c14.3,5.8,28.8,11.5,43,17.1
				c-1.8,21.2,1,45.7,32.1,12.5c49,19,87.7,33.3,87.7,33.3L1052.9,885.6z"/>
			<linearGradient id="SVGID_9_" gradientUnits="userSpaceOnUse" x1="166.8465" y1="847.8205" x2="1052.9095" y2="847.8205">
				<stop  offset="5.405406e-03" style="stop-color:#8C553C"/>
				<stop  offset="7.775898e-02" style="stop-color:#624A3E"/>
				<stop  offset="0.1583" style="stop-color:#3B3D3C"/>
				<stop  offset="0.2378" style="stop-color:#182F35"/>
				<stop  offset="0.3145" style="stop-color:#00212C"/>
				<stop  offset="0.3876" style="stop-color:#00131B"/>
				<stop  offset="0.4556" style="stop-color:#000408"/>
				<stop  offset="0.5135" style="stop-color:#000000"/>
				<stop  offset="1" style="stop-color:#000000"/>
			</linearGradient>
			<path fill="url(#SVGID_9_)" d="M1052.9,885.6c0,0-294.8-242.7-481.1-129.7S318.5,974.4,251.7,944.5s-26.4-139.9-65.5-111.7
				c-39.1,28.1-6.8,134.7-6.8,134.7h253.7c0,0,4.8-4.3,13.2-10.9c3.7,3.8,8.2,6.1,13.3,3.9c5.9-2.5,7.3-10.5,6.9-18.9
				c5.4-3.8,11.4-7.7,17.7-11.7c4.8,11.9,13.2,21.8,27.1,12.7c14-9.2,15.9-23.3,14.4-34.7c11-4.7,22.3-8.7,33.7-11.4
				c7.6,20.6,25.2,45.8,61,1.6c0.6,0.2,1.3,0.5,1.9,0.7c14.3,5.8,28.8,11.5,43,17.1c-1.8,21.2,1,45.7,32.1,12.5
				c49,19,99.2,41.4,99.2,41.4L1052.9,885.6z"/>
			<path fill="#FEC77C" d="M712.9,877.1c3.5,2.4,5.6,5.5,5.6,8.8c0,7.5-10.4,13.6-23.2,13.6s-23.2-6.1-23.2-13.6
				c0-7.4,10-13.4,22.6-13.6c-0.2,0-0.4,0-0.6,0c-14.9,0-27,7.5-27,16.7s12.1,16.7,27,16.7s27-7.5,27-16.7
				C721,884.4,717.9,880.1,712.9,877.1z"/>
			<path fill="#FEC77C" d="M590.5,862.7c3.7,1.6,6.3,4.1,6.9,7.3c1.4,7.1-7.3,14.8-19.4,17.1c-12.1,2.3-23-1.5-24.4-8.6
				c-1.4-7,7-14.5,18.8-17c-0.2,0-0.4,0.1-0.6,0.1c-14.1,2.7-24.2,12-22.5,20.7c1.7,8.7,14.5,13.6,28.6,10.8
				c14.1-2.7,24.2-12,22.5-20.7C599.5,868,595.7,864.6,590.5,862.7z"/>
			<path fill="#FEC77C" d="M495.2,895.1c3.7,1.6,6.3,4.1,6.9,7.3c1.4,7.1-7.3,14.8-19.4,17.1s-23-1.5-24.4-8.6
				c-1.4-7,7-14.5,18.8-17c-0.2,0-0.4,0.1-0.6,0.1c-14.1,2.7-24.2,12-22.5,20.7c1.7,8.7,14.5,13.6,28.6,10.8
				c14.1-2.7,24.2-12,22.5-20.7C504.2,900.4,500.5,897,495.2,895.1z"/>
			<path fill="#FEC77C" d="M404.6,933c3.7,1.6,6.3,4.1,6.9,7.3c1.4,7.1-7.3,14.8-19.4,17.1s-23-1.5-24.4-8.6c-1.4-7,7-14.5,18.8-17
				c-0.2,0-0.4,0.1-0.6,0.1c-14.1,2.7-24.2,12-22.5,20.7c1.7,8.7,14.5,13.6,28.6,10.8c14.1-2.7,24.2-12,22.5-20.7
				C413.6,938.4,409.8,935,404.6,933z"/>
		</g>
	</g>
	<path fill="#FFFFFF" d="M0,0v980h1400V0H0z M1371.7,891.9c0,37.8-30.6,68.4-68.4,68.4H96.6c-37.8,0-68.4-30.6-68.4-68.4V88.1
		c0-37.8,30.6-68.4,68.4-68.4h1206.7c37.8,0,68.4,30.6,68.4,68.4V891.9z"/>
</g>
</svg>
